<?xml version="1.0" encoding="UTF-8"?>
<!-- Created with Inkscape (http://www.inkscape.org/) -->
<svg width="2063.8" height="221.04" version="1.1" viewBox="0 0 2063.8 221.04" xml:space="preserve" xmlns="http://www.w3.org/2000/svg"><defs><clipPath id="clipPath18"><g display="none"><path d="m583.06 356.21s0.91144-2.8519 3.587-3.8516c2.6755-0.99965 5.1746 0.52922 4.7042 1.6759-0.47042 1.1467-3.587-0.52922-4.2338-0.0882s-3.7928 3.3518-2.4697 4.91 2.6755 3.1165 3.587 3.3518 1.4407 1.3819 0.26461 1.4407c-1.176 0.0588-2.1463-0.23522-3.7046-0.88204-1.5583-0.64683-2.8813-4.3514-1.7347-6.5565z" fill="#fff" fill-opacity=".99737" stroke-width="1.085"/><path d="m600.32 349.69s-0.67623-1.9699 1.4113-2.4991c2.0875-0.52923 0.17641-4.1162-2.0875-1.4407s-0.97024 3.6164-0.97024 3.6164 1.7347 2.3227 1.6465 0.32342z" fill="#fff" fill-opacity=".99737" stroke-width="1.085"/><path d="m602.2 359.62s1.7935-2.9107 3.3812 0.26462c1.5877 3.1753-4.9394 1.7053-3.3812-0.26462z" fill="#fff" fill-opacity=".99737" stroke-width="1.085"/></g><path class="powerclip" d="m577.25 332.93h42.349v42.349h-42.349zm5.8043 23.289c-1.1466 2.2051 0.17641 5.9097 1.7347 6.5565 1.5583 0.64682 2.5285 0.94084 3.7046 0.88204s0.64683-1.2055-0.26461-1.4407-2.2639-1.7935-3.587-3.3518 1.8229-4.469 2.4697-4.91 3.7634 1.2349 4.2338 0.0882c0.47042-1.1466-2.0287-2.6755-4.7042-1.6759-2.6755 0.99964-3.587 3.8516-3.587 3.8516zm17.259-6.5271s-0.67623-1.9699 1.4113-2.4991c2.0875-0.52923 0.17641-4.1162-2.0875-1.4407s-0.97024 3.6164-0.97024 3.6164 1.7347 2.3227 1.6465 0.32342zm1.8817 9.9376c-1.5583 1.9699 4.9688 3.44 3.3812 0.26462-1.5877-3.1754-3.3812-0.26462-3.3812-0.26462z"/></clipPath><clipPath id="clipPath47"><path class="powerclip" d="m674.17 328.33h63.203v63.203h-63.203zm54.681 31.602a23.08 23.08 0 0 0-23.08-23.08 23.08 23.08 0 0 0-23.08 23.08 23.08 23.08 0 0 0 23.08 23.08 23.08 23.08 0 0 0 23.08-23.08z" fill-opacity=".99737" stroke-width="1.085"/></clipPath></defs><g transform="rotate(11.498 1767.8 6556)" display="none" fill-opacity=".99737"><path transform="matrix(1.4815 0 0 1.4815 -274.47 -110.97)" d="m614.6 354.1a16.175 16.175 0 0 1-16.175 16.175 16.175 16.175 0 0 1-16.175-16.175 16.175 16.175 0 0 1 16.175-16.175 16.175 16.175 0 0 1 16.175 16.175z" clip-path="url(#clipPath18)" display="inline" stroke-width=".75369"/><g display="inline"><rect transform="matrix(.81668 .57709 -.55401 .83251 0 0)" x="700.27" y="-181.56" width="5.219" height="171.7" rx="1.7369" ry="1.7369" stroke-width="1.216"/><rect transform="matrix(.82628 .56326 -.55039 .83491 0 0)" x="753.84" y="-167.89" width="5.2175" height="95.576" rx="1.7609" ry="1.7609" display="inline" stroke-width=".90712"/><rect transform="matrix(.82754 .5614 -.54976 .83532 0 0)" x="718.93" y="-186.77" width="5.2174" height="85.219" rx="1.7609" ry="1.7609" display="inline" stroke-width=".85655"/><rect transform="matrix(.82363 .56712 -.56351 .82611 0 0)" x="717.32" y="-98.817" width="5.217" height="31.998" rx="1.7607" ry="1.7607" display="inline" stroke-width=".52484"/><rect transform="matrix(.8476 .53064 -.55208 .83379 0 0)" x="736.12" y="-190.18" width="5.6975" height="183.61" rx="1.8574" ry="1.8574" display="inline" stroke-width="1.3139"/></g><g transform="rotate(-56.657 646.2 455.83)"><rect transform="matrix(-.017193 .99985 -1 -8.0145e-6 0 0)" x="438.28" y="-774.05" width="5.2177" height="105.47" rx="1.7367" ry="1.7369" display="inline" stroke-width="1.2159"/><path transform="matrix(1.4815 0 0 1.4815 -381.63 -129.21)" d="m694.26 336.22a26.602 26.602 0 0 0-15.09 23.717 26.602 26.602 0 0 0 26.602 26.602 26.602 26.602 0 0 0 0.60743-0.0352c-5e-3 -0.0319-9e-3 -0.0637-0.0137-0.0957-0.0276-0.2169-0.0374-0.43619-0.0508-0.6543-9e-3 -0.21254-0.0344-0.42429-0.0644-0.63477-0.0343-0.2282-0.076-0.45422-0.11523-0.68164-0.0396-0.21174-0.0679-0.42424-0.0879-0.63867-0.0194-0.17513-0.0173-0.35208-4e-3 -0.52734 0.0123-0.14493 0.0383-0.28845 0.0723-0.42969 0.0301-0.1202 0.069-0.23775 0.10743-0.35547 0.0292-0.093 0.0614-0.18419 0.0957-0.27539 0.0113-0.0285 0.0226-0.0572 0.0332-0.0859 0.0646-0.17541 0.15477-0.29408 0.25196-0.36718-0.0157-0.10382-0.0388-0.2065-0.0527-0.31055-0.12711-1.197-0.14026-2.3978 0.36328-3.5234 0.36784-0.47166 0.68425-0.98942 1.1035-1.416 0.2049-0.20847 0.47639-0.34758 0.74414-0.46485 0.70619-0.30928 1.4259-0.44893 2.168-0.43359 0.57405-1.751 1.7871-2.6309 3.0039-2.6309 1.4462 0 2.8905 1.2397 3.2578 3.7129 0.2361 0.0124 0.47211 0.0244 0.72656 0.0645 0.12316-0.11866 0.24239-0.24093 0.37109-0.35351 0.32395-0.2834 0.71567-0.48079 1.0957-0.66602 0.45373-0.19275 0.61824-0.28244 1.2812-0.48047 0.36724-0.0296 0.73345-0.0724 1.1016-0.0879 0.0947-4e-3 0.1897 0.0135 0.2832 0.0293 5e-3 9e-4 0.0103 3e-3 0.0156 4e-3 0.17245-0.14947 0.34739-0.29605 0.5-0.4668 0.0837-0.071 5e-3 -2e-3 0.17382-0.20508 0.19058-0.22886 0.39052-0.44773 0.58204-0.67578 0.32484-0.38557 0.64982-0.77135 0.9707-1.1602 0.21281-0.26545 0.41253-0.54541 0.57617-0.84375 0.1101-0.19785 0.23436-0.39137 0.31836-0.59961 0.0184-0.0445 0.0363-0.0883 0.0547-0.13281 0.0222-0.0907 0.028-0.19378 0.0762-0.26367 0.0915-0.31444 0.18989-0.62515 0.27539-0.94141 0.10183-0.35833 0.1686-0.7266 0.25-1.0898 0.0797-0.37181 0.16756-0.74064 0.28125-1.1035 0.085-0.30355 0.17302-0.60504 0.22852-0.91601 0.0669-0.28697 0.15454-0.57065 0.18164-0.86524 0.0495-0.44343 0.0604-0.8941 0.0684-1.3398-1e-3 -0.45607 8.2e-4 -0.91114-6e-3 -1.3672-5e-3 -0.42481-0.0119-0.84908-0.0332-1.2734-0.0223-0.42262-0.0557-0.8465-0.11718-1.2656-0.0538-0.45424-0.092-0.90979-0.17969-1.3594-0.0894-0.58058-0.14549-1.1646-0.21289-1.748-0.10368-0.77805-0.21582-1.5548-0.29492-2.3359-0.1097-0.88428-0.2423-1.7686-0.42579-2.6406-0.18467-0.85621-0.39448-1.7072-0.60742-2.5566-0.11525-0.44237-0.25321-0.87343-0.42187-1.2988-0.087-0.25072-0.19845-0.48799-0.32617-0.72071-0.13344-0.2537-0.3023-0.48208-0.48243-0.70703-0.36113-0.46938-0.72801-0.9358-1.1211-1.3789-0.49264-0.56297-0.97784-1.1337-1.5-1.6699-0.64312-0.67596-1.2965-1.3411-1.9473-2.0098-0.36222-0.39455-0.70718-0.80273-1.041-1.2207-0.55256 0.36437-1.9824-0.46031-5.9277-0.73243-3.8691 0.77547-5.1992 1.8554-5.6016-0.67773-0.39849-6e-3 -0.79608-0.0329-1.1914-0.0742-0.0317-3e-3 -0.0872-0.0345-0.1543-0.0781h-2e-3c-0.12015 0.0835-0.25595 0.15372-0.41993 0.20117-0.32154 0.093-0.65521 0.10071-0.99218 0.0801-0.44888 0.27709-0.96498 0.34988-1.4609 0.22265-0.26198 0.22413-0.60115 0.41681-1.0469 0.60547-0.70949 0.3003-1.2772-0.0515-1.8789-0.30078-0.55096-0.35355-0.8492-0.78189-1.0781-1.3496-0.16812-0.01-0.34004-0.11998-0.47265-0.32812-0.0287 0.0516-0.077 0.0742-0.12696 0.0645 0.34126 0.91191-0.60595 1.3336-1.0918 0.40429-0.1344 0.30586-0.27704 0.50396-0.46094 0.0547-9e-3 -0.0222-0.0184-0.0436-0.0254-0.0664-4e-3 -0.0122-3e-3 -8e-3 -6e-3 -0.0176-0.11296 0.26079-0.24211 0.39339-0.4336-6e-3 -0.0205-0.0428-0.0402-0.0849-0.0527-0.13086-0.0146-0.0472-0.0336-0.0936-0.0488-0.14063-0.0172-0.051-0.0327-0.10299-0.0488-0.15429-0.0225-0.056-0.0497-0.11909-0.0703-0.17969-0.024-0.0687-0.0481-0.13843-0.0723-0.20703-0.0254-0.0752-0.0537-0.14926-0.084-0.22266-0.0327-0.0875-0.0791-0.1687-0.11719-0.2539-0.0506-0.1042-0.10029-0.21003-0.15039-0.31446-0.0427-0.0875-0.0884-0.17231-0.13476-0.25781-0.0493-0.089-0.10002-0.17824-0.13672-0.27344-0.0306-0.0707-0.0635-0.13959-0.0879-0.21289-0.0195-0.0571-0.0343-0.11587-0.0566-0.17187-0.0375-0.10072-0.0734-0.20213-0.10547-0.30469-1.6e-4 -6e-4 1.6e-4 -1e-3 0-2e-3 -0.0344 0.0148-0.0659 0.0131-0.0898 0zm24.957 44.498c-0.0327-0.0412 0.0652 0.0817 0.0976 0.12305 0.0163 0.0193 0.0492 0.0442 0.0684 0.0644-0.0541-0.0639-0.1138-0.12175-0.16601-0.1875zm-8.7012 1.5625c-4e-3 -2.6e-4 0.0407 7e-3 0.0703 0.0117v-4e-3c-0.0234-2e-3 -0.0468-6e-3 -0.0703-8e-3z" clip-path="url(#clipPath47)" display="inline" stroke-width=".73238"/><path d="m648.77 373.38-1.8748-4.468c-0.0872-0.0625 2.1649-0.69421 3.0288 1.3513 0.86422 2.0463-1.169 3.2263-1.1538 3.1166z" display="inline" stroke-width="1.085"/></g></g><g transform="translate(1552.6 -145.48)" display="none" fill="#f9f9f9"><g display="inline"><path d="m31.207 493.51 109.03-188.76h84.586l-109.03 188.76zm27.08-15.075h48.333l91.117-159.23h-48.333z" display="inline" fill="#000" stroke-width="1.5634"/></g><g display="none"><path d="m276 291.55 73.592 127.41h57.096l-73.592-127.41zm18.279 10.176h32.625l61.504 107.48h-32.625z" display="inline" fill="#f9f9f9" stroke-width="1.5634"/></g><g transform="translate(68.785 -.59813)" display="inline"><path d="m301.74 23.55-107.19 188.76h84.589l107.19-188.76zm11.131 15.075h48.333l-93.194 159.23h-48.333z" display="inline" fill="#000" stroke-width="1.5634"/></g><g display="inline"><path d="m31.207 22.951 109.03 188.76h84.586l-109.03-188.76zm27.08 15.075h48.333l91.117 159.23h-48.333z" display="inline" fill="#000" stroke-width="1.5634"/></g></g><text x="1551.8418" y="278.61914" display="none" fill="#fff8dc" fill-opacity=".99608" font-family="Ethnocentric" font-size="66.148px" letter-spacing="34.11px" stroke-width="1.085" text-align="center" text-anchor="middle" word-spacing="0px" xml:space="preserve"><tspan x="0" y="74.816673" font-size="66.148px" letter-spacing="34.11px" stroke-width="1.085" text-align="start" text-anchor="start">SPACE</tspan></text><g transform="translate(1552.6 -145.48)" display="none" fill="#002539" fill-opacity=".99608" stroke-width="1.085"><g transform="translate(12.93 60.34)" display="inline"><path d="m-7.0286 162.34 68.77 56.647c13.873-7.2547 26.863-16.465 41.238-22.216l-43.459-34.434z"/><path d="m-12.136 306.18 59.437 2e-3c143.04-126.3 294.63-190.83 450.98-221.04-214.43 0.474-457.99 162.37-510.41 221.04z"/></g><path d="m20.308 397.51c-3.1751 0-4.6965-0.85993-4.6965-3.109s1.5214-3.0428 4.6965-3.0428h30.693l8.7978-11.51h-38.432c-13.428 0-18.985 5.4242-18.985 13.759 0 7.6071 5.2257 12.701 16.603 12.701h24.078c3.2413 0 4.6965 0.92608 4.6965 3.1751 0 2.3152-1.4553 3.2413-4.6965 3.2413h-33.471l-8.7978 11.378h41.211c13.494 0 18.985-5.4242 18.985-14.487 0-8.0701-5.8211-12.105-16.603-12.105zm139.29-1.0584c0-9.8561-8.004-16.603-21.697-16.603h-27.782l-9.0623 11.51h38.102c4.2335 0 6.681 1.9183 6.681 5.0273 0 3.0428-2.4475 5.0934-6.681 5.0934h-38.102v22.623h13.627v-11.311h23.152c13.759 0 21.763-6.5487 21.763-16.339zm100.79 27.65-27.65-40.02c-1.9183-2.7782-4.6304-4.9611-8.7316-4.9611-4.2997 0-7.0118 2.3813-8.8639 4.9611l-28.378 40.02h16.206l20.771-29.37 7.9378 11.708c1.4553 2.1168 3.3074 4.8288 4.4981 6.4164-2.1168-0.1323-5.2257-0.1323-7.8717-0.1323h-11.113l-8.2686 11.378zm57.46-11.378c-7.4748 0-12.965-4.2996-12.965-10.584 0-6.3502 5.5565-10.782 12.965-10.782h22.226l8.7978-11.51h-31.024c-15.346 0-26.658 8.7316-26.658 21.697 0 12.833 11.311 22.557 26.658 22.557h22.226l8.7978-11.378zm83.655 0v-6.0195h27.187l7.8717-10.055h-35.059v-5.2919h28.642l8.8639-11.51h-51.265v44.253h42.6l8.7978-11.378z" display="inline" aria-label="SPACE"/></g><g transform="translate(1552.6 -145.48)" display="none" fill="#fff8dc" fill-opacity=".99608" stroke-width="1.085"><g transform="translate(12.93 60.34)"><path d="m-7.0286 162.34 68.77 56.647c13.873-7.2547 26.863-16.465 41.238-22.216l-43.459-34.434z"/><path d="m-12.136 306.18 59.437 2e-3c143.04-126.3 294.63-190.83 450.98-221.04-214.43 0.474-457.99 162.37-510.41 221.04z"/></g><path d="m20.308 397.51c-3.1751 0-4.6965-0.85993-4.6965-3.109s1.5214-3.0428 4.6965-3.0428h30.693l8.7978-11.51h-38.432c-13.428 0-18.985 5.4242-18.985 13.759 0 7.6071 5.2257 12.701 16.603 12.701h24.078c3.2413 0 4.6965 0.92608 4.6965 3.1751 0 2.3152-1.4553 3.2413-4.6965 3.2413h-33.471l-8.7978 11.378h41.211c13.494 0 18.985-5.4242 18.985-14.487 0-8.0701-5.8211-12.105-16.603-12.105zm139.29-1.0584c0-9.8561-8.004-16.603-21.697-16.603h-27.782l-9.0623 11.51h38.102c4.2335 0 6.681 1.9183 6.681 5.0273 0 3.0428-2.4475 5.0934-6.681 5.0934h-38.102v22.623h13.627v-11.311h23.152c13.759 0 21.763-6.5487 21.763-16.339zm100.79 27.65-27.65-40.02c-1.9183-2.7782-4.6304-4.9611-8.7316-4.9611-4.2997 0-7.0118 2.3813-8.8639 4.9611l-28.378 40.02h16.206l20.771-29.37 7.9378 11.708c1.4553 2.1168 3.3074 4.8288 4.4981 6.4164-2.1168-0.1323-5.2257-0.1323-7.8717-0.1323h-11.113l-8.2686 11.378zm57.46-11.378c-7.4748 0-12.965-4.2996-12.965-10.584 0-6.3502 5.5565-10.782 12.965-10.782h22.226l8.7978-11.51h-31.024c-15.346 0-26.658 8.7316-26.658 21.697 0 12.833 11.311 22.557 26.658 22.557h22.226l8.7978-11.378zm83.655 0v-6.0195h27.187l7.8717-10.055h-35.059v-5.2919h28.642l8.8639-11.51h-51.265v44.253h42.6l8.7978-11.378z" display="inline" aria-label="SPACE"/></g><g transform="translate(1552.6 -145.48)" display="none" fill="#fff8dc" fill-opacity=".99608" stroke-width="1.085"><g transform="translate(12.93 60.34)"><path d="m-7.0286 162.34 68.77 56.647c13.873-7.2547 26.863-16.465 41.238-22.216l-43.459-34.434z"/><path d="m-12.136 306.18 59.437 2e-3c143.04-126.3 294.63-190.83 450.98-221.04-214.43 0.474-457.99 162.37-510.41 221.04z"/></g><path d="m-1489.2 280.07c-10.321 0-15.266-2.7952-15.266-10.106 0-7.3105 4.9453-9.8906 15.266-9.8906h99.766l28.597-37.412h-124.92c-43.648 0-61.709 17.631-61.709 44.723 0 24.727 16.986 41.283 53.969 41.283h78.265c10.536 0 15.266 3.0102 15.266 10.321 0 7.5255-4.7303 10.536-15.266 10.536h-108.8l-28.597 36.982h133.95c43.863 0 61.709-17.631 61.709-47.088 0-26.232-18.921-39.348-53.968-39.348zm452.74-3.4402c0-32.037-26.017-53.968-70.525-53.968h-90.306l-29.457 37.412h123.85c13.761 0 21.716 6.2354 21.716 16.341 0 9.8906-7.9555 16.556-21.716 16.556h-123.85v73.535h44.293v-36.767h75.255c44.723 0 70.74-21.286 70.74-53.108zm327.61 89.876-89.876-130.08c-6.2354-9.0306-15.051-16.126-28.382-16.126-13.976 0-22.792 7.7405-28.812 16.126l-92.241 130.08h52.678l67.514-95.466 25.802 38.057c4.7303 6.8804 10.751 15.696 14.621 20.856-6.8804-0.43004-16.986-0.43004-25.587-0.43004h-36.122l-26.877 36.982zm186.77-36.982c-24.297 0-42.143-13.976-42.143-34.402 0-20.641 18.061-35.047 42.143-35.047h72.245l28.597-37.412h-100.84c-49.883 0-86.651 28.382-86.651 70.525 0 41.713 36.767 73.32 86.651 73.32h72.245l28.597-36.982zm271.92 0v-19.566h88.371l25.587-32.682h-113.96v-17.201h93.101l28.812-37.412h-166.64v143.84h138.47l28.597-36.982z" display="inline" aria-label="SPACE"/></g><g transform="translate(1552.6 -145.48)" fill="#002539" fill-opacity=".99608" stroke-width="1.085"><g transform="translate(12.93 60.34)"><path d="m-7.0286 162.34 68.77 56.647c13.873-7.2547 26.863-16.465 41.238-22.216l-43.459-34.434z"/><path d="m-12.136 306.18 59.437 2e-3c143.04-126.3 294.63-190.83 450.98-221.04-214.43 0.474-457.99 162.37-510.41 221.04z"/></g><path d="m-1489.2 280.07c-10.321 0-15.266-2.7952-15.266-10.106 0-7.3105 4.9453-9.8906 15.266-9.8906h99.766l28.597-37.412h-124.92c-43.648 0-61.709 17.631-61.709 44.723 0 24.727 16.986 41.283 53.969 41.283h78.265c10.536 0 15.266 3.0102 15.266 10.321 0 7.5255-4.7303 10.536-15.266 10.536h-108.8l-28.597 36.982h133.95c43.863 0 61.709-17.631 61.709-47.088 0-26.232-18.921-39.348-53.968-39.348zm452.74-3.4402c0-32.037-26.017-53.968-70.525-53.968h-90.306l-29.457 37.412h123.85c13.761 0 21.716 6.2354 21.716 16.341 0 9.8906-7.9555 16.556-21.716 16.556h-123.85v73.535h44.293v-36.767h75.255c44.723 0 70.74-21.286 70.74-53.108zm327.61 89.876-89.876-130.08c-6.2354-9.0306-15.051-16.126-28.382-16.126-13.976 0-22.792 7.7405-28.812 16.126l-92.241 130.08h52.678l67.514-95.466 25.802 38.057c4.7303 6.8804 10.751 15.696 14.621 20.856-6.8804-0.43004-16.986-0.43004-25.587-0.43004h-36.122l-26.877 36.982zm186.77-36.982c-24.297 0-42.143-13.976-42.143-34.402 0-20.641 18.061-35.047 42.143-35.047h72.245l28.597-37.412h-100.84c-49.883 0-86.651 28.382-86.651 70.525 0 41.713 36.767 73.32 86.651 73.32h72.245l28.597-36.982zm271.92 0v-19.566h88.371l25.587-32.682h-113.96v-17.201h93.101l28.812-37.412h-166.64v143.84h138.47l28.597-36.982z" aria-label="SPACE"/></g></svg>
